<svg width="33" height="33" viewBox="0 0 33 33" fill="none" xmlns="http://www.w3.org/2000/svg">
<rect width="33" height="33" rx="16.5" fill="#57FCFF"/>
<path d="M16.5 7L17.1979 6.28377L16.5 5.6038L15.8021 6.28377L16.5 7ZM15.5 26C15.5 26.5523 15.9477 27 16.5 27C17.0523 27 17.5 26.5523 17.5 26L16.5 26L15.5 26ZM23 13.3333L23.6979 12.6171L17.1979 6.28377L16.5 7L15.8021 7.71623L22.3021 14.0496L23 13.3333ZM16.5 7L15.8021 6.28377L9.30214 12.6171L10 13.3333L10.6979 14.0496L17.1979 7.71623L16.5 7ZM16.5 7L15.5 7L15.5 26L16.5 26L17.5 26L17.5 7L16.5 7Z" fill="#022C2D"/>
</svg>
