<svg width="16" height="17" viewBox="0 0 16 17" fill="none" xmlns="http://www.w3.org/2000/svg">
<path d="M12.2275 3.22656L3.75586 8.56537L9.79896 12.6899" stroke="white" stroke-width="2" stroke-linecap="round" stroke-linejoin="round"/>
<path d="M2.22656 6.97656C3.17974 6.97676 3.95215 7.7499 3.95215 8.70312C3.95195 9.65618 3.17962 10.4285 2.22656 10.4287C1.27334 10.4287 0.500201 9.6563 0.5 8.70312C0.5 7.74978 1.27321 6.97656 2.22656 6.97656Z" fill="white" stroke="white"/>
<path d="M13.5596 0.5C14.5127 0.500201 15.2852 1.27334 15.2852 2.22656C15.285 3.17962 14.5126 3.95195 13.5596 3.95215C12.6063 3.95215 11.8332 3.17974 11.833 2.22656C11.833 1.27321 12.6062 0.5 13.5596 0.5Z" fill="white" stroke="white"/>
<path d="M13.5596 13.0469C14.5127 13.0471 15.2852 13.8202 15.2852 14.7734C15.285 15.7265 14.5126 16.4988 13.5596 16.499C12.6063 16.499 11.8332 15.7266 11.833 14.7734C11.833 13.8201 12.6062 13.0469 13.5596 13.0469Z" fill="white" stroke="white"/>
</svg>
